<svg xmlns="http://www.w3.org/2000/svg" version="1.1" xmlns:xlink="http://www.w3.org/1999/xlink" xmlns:svgjs="http://svgjs.dev/svgjs" width="1000" height="1000" viewBox="0 0 1000 1000"><rect width="1000" height="1000" fill="#ffffff"></rect><g transform="matrix(0.7,0,0,0.7,150,150)"><svg viewBox="0 0 280 280" data-background-color="#ffffff" preserveAspectRatio="xMidYMid meet" height="1000" width="1000" xmlns="http://www.w3.org/2000/svg" xmlns:xlink="http://www.w3.org/1999/xlink"><g id="tight-bounds" transform="matrix(1,0,0,1,0,0)"><svg viewBox="0 0 280 280" height="280" width="280"><g><svg viewBox="0 0 280 280" height="280" width="280"><g><svg viewBox="0 0 280 280" height="280" width="280"><g id="textblocktransform"><svg viewBox="0 0 280 280" height="280" width="280" id="textblock"><g><svg viewBox="0 0 280 280" height="280" width="280"><g transform="matrix(1,0,0,1,57.50420886156945,57.50420886156945)"><svg viewBox="0 0 164.9915822768611 164.9915822768611" height="164.9915822768611" width="164.9915822768611"><g><circle r="82" cx="82.49579113843055" cy="82.49579113843055" fill="#cf675f" data-fill-palette-color="accent"></circle><svg xmlns="http://www.w3.org/2000/svg" xmlns:xlink="http://www.w3.org/1999/xlink" version="1.1" x="24.74873734152917" y="24.748737341529164" viewBox="10.100000381469727 5.199999809265137 78.4000015258789 90" enable-background="new 0 0 100 100" xml:space="preserve" height="115.49410759380275" width="115.49410759380275" class="icon-o-0" data-fill-palette-color="quaternary" id="o-0"><polygon fill-rule="evenodd" clip-rule="evenodd" fill="#ffffff" points="88.5,28.2 68.4,59.9 68.5,22.3 " data-fill-palette-color="quaternary"></polygon><polygon fill-rule="evenodd" clip-rule="evenodd" fill="#ffffff" points="49.8,5.2 67.2,38.5 34.7,19.6 " data-fill-palette-color="quaternary"></polygon><polygon fill-rule="evenodd" clip-rule="evenodd" fill="#ffffff" points="67.8,38.3 67.8,22.3 60.8,24.5 " data-fill-palette-color="quaternary"></polygon><polygon fill-rule="evenodd" clip-rule="evenodd" fill="#ffffff" points="88.2,73.2 50.6,71.7 83.2,52.9 " data-fill-palette-color="quaternary"></polygon><polygon fill-rule="evenodd" clip-rule="evenodd" fill="#ffffff" points="69.1,60.3 82.8,52.3 77.4,47.4 " data-fill-palette-color="quaternary"></polygon><polygon fill-rule="evenodd" clip-rule="evenodd" fill="#ffffff" points="48.7,95.2 31.5,61.9 63.9,80.9 " data-fill-palette-color="quaternary"></polygon><polygon fill-rule="evenodd" clip-rule="evenodd" fill="#ffffff" points="50.5,72.2 64.2,80.2 65.8,73.1 " data-fill-palette-color="quaternary"></polygon><polygon fill-rule="evenodd" clip-rule="evenodd" fill="#ffffff" points="10.1,72 30.5,40.4 30.1,78 " data-fill-palette-color="quaternary"></polygon><polygon fill-rule="evenodd" clip-rule="evenodd" fill="#ffffff" points="30.9,62.1 30.8,78 37.8,75.8 " data-fill-palette-color="quaternary"></polygon><polygon fill-rule="evenodd" clip-rule="evenodd" fill="#ffffff" points="11,27 48.5,28.9 15.8,47.3 " data-fill-palette-color="quaternary"></polygon><polygon fill-rule="evenodd" clip-rule="evenodd" fill="#ffffff" points="30,40.1 16.1,47.9 21.5,52.9 " data-fill-palette-color="quaternary"></polygon><polygon fill-rule="evenodd" clip-rule="evenodd" fill="#ffffff" points="48.2,28.3 34.5,20.2 32.9,27.4 " data-fill-palette-color="quaternary"></polygon></svg></g></svg></g><g><path d="M22.168 178.694V178.694C23.921 178.021 25.712 177.719 27.54 177.789 29.366 177.851 31.118 178.246 32.794 178.971 34.465 179.699 35.947 180.716 37.241 182.021 38.535 183.326 39.528 184.88 40.22 186.683V186.683C40.903 188.461 41.2 190.268 41.112 192.103 41.024 193.939 40.608 195.699 39.863 197.383 39.11 199.063 38.08 200.547 36.772 201.835 35.462 203.116 33.931 204.093 32.178 204.766V204.766C30.369 205.461 28.552 205.769 26.728 205.691 24.894 205.61 23.15 205.195 21.493 204.447 19.836 203.699 18.369 202.666 17.092 201.347 15.818 200.02 14.84 198.467 14.158 196.689V196.689C13.465 194.887 13.148 193.073 13.204 191.25 13.255 189.428 13.641 187.694 14.364 186.047 15.087 184.401 16.112 182.94 17.439 181.667 18.764 180.387 20.34 179.396 22.168 178.694ZM23.655 182.567V182.567C22.342 183.071 21.209 183.78 20.255 184.694 19.302 185.608 18.561 186.653 18.032 187.829 17.501 188.998 17.21 190.231 17.159 191.526 17.102 192.824 17.321 194.116 17.816 195.404V195.404C18.3 196.667 18.997 197.758 19.905 198.678 20.805 199.594 21.841 200.302 23.013 200.803 24.186 201.305 25.431 201.573 26.749 201.607 28.067 201.642 29.382 201.407 30.695 200.903V200.903C32.002 200.401 33.131 199.69 34.082 198.77 35.036 197.856 35.786 196.815 36.332 195.647 36.88 194.485 37.186 193.254 37.249 191.954 37.312 190.654 37.101 189.373 36.617 188.11V188.11C36.113 186.797 35.405 185.685 34.493 184.774 33.578 183.856 32.526 183.143 31.336 182.634 30.146 182.125 28.888 181.862 27.562 181.845 26.245 181.832 24.943 182.072 23.655 182.567ZM64.676 260.756L64.591 260.685 61.753 231.181 62.415 232.217 49.996 247.342 46.867 244.743 64.873 223.066 65.02 223.188 67.637 252.548 67.082 251.746 79.666 236.469 82.733 239.016ZM169.777 249.809L173.733 249.054 178.86 275.89 174.904 276.646 172.694 265.077 159.092 267.675 161.302 279.244 157.347 280 152.22 253.163 156.176 252.407 158.372 263.908 171.974 261.309ZM209.624 245.061V245.061C208.388 243.647 207.487 242.071 206.922 240.331 206.351 238.595 206.117 236.815 206.22 234.991 206.327 233.171 206.77 231.43 207.549 229.765 208.328 228.1 209.444 226.632 210.898 225.361V225.361C212.331 224.107 213.925 223.205 215.678 222.655 217.432 222.104 219.227 221.888 221.065 222.006 222.902 222.134 224.65 222.589 226.309 223.373 227.964 224.16 229.409 225.261 230.645 226.674V226.674C231.921 228.133 232.837 229.732 233.393 231.471 233.948 233.22 234.161 235.001 234.03 236.814 233.899 238.627 233.435 240.36 232.638 242.014 231.831 243.667 230.711 245.121 229.278 246.375V246.375C227.824 247.646 226.232 248.569 224.501 249.145 222.774 249.726 221.013 249.961 219.218 249.851 217.422 249.74 215.698 249.281 214.045 248.475 212.387 247.672 210.913 246.534 209.624 245.061ZM212.746 242.329V242.329C213.672 243.388 214.728 244.207 215.915 244.787 217.102 245.367 218.338 245.703 219.625 245.793 220.906 245.889 222.163 245.737 223.396 245.338 224.634 244.943 225.772 244.292 226.81 243.384V243.384C227.828 242.494 228.612 241.464 229.162 240.294 229.712 239.134 230.02 237.917 230.086 236.643 230.152 235.37 229.974 234.109 229.552 232.86 229.13 231.611 228.456 230.457 227.53 229.398V229.398C226.609 228.345 225.552 227.53 224.36 226.955 223.174 226.375 221.938 226.03 220.653 225.92 219.373 225.806 218.112 225.943 216.87 226.332 215.628 226.721 214.498 227.361 213.48 228.252V228.252C212.422 229.177 211.622 230.226 211.081 231.396 210.535 232.571 210.229 233.804 210.161 235.097 210.094 236.389 210.281 237.661 210.722 238.911 211.163 240.152 211.838 241.291 212.746 242.329ZM237.62 189.507L240.326 182.48C241.056 180.584 242.004 179.088 243.168 177.994 244.334 176.893 245.651 176.217 247.117 175.967 248.586 175.71 250.174 175.911 251.882 176.569V176.569C252.887 176.956 253.823 177.493 254.69 178.18 255.554 178.859 256.262 179.687 256.816 180.664 257.37 181.642 257.673 182.775 257.724 184.064 257.778 185.347 257.503 186.773 256.899 188.343V188.343L255.466 192.063 264.565 195.567 263.118 199.325ZM251.849 190.67L253.282 186.95C253.642 186.014 253.787 185.169 253.718 184.414 253.648 183.659 253.438 183.005 253.089 182.452 252.73 181.903 252.318 181.448 251.851 181.088 251.381 180.735 250.936 180.477 250.516 180.315V180.315C250.051 180.136 249.526 180.02 248.94 179.968 248.352 179.921 247.762 179.986 247.168 180.161 246.58 180.339 246.023 180.672 245.496 181.161 244.966 181.657 244.525 182.363 244.172 183.28V183.28L242.684 187.141Z" fill="#f0dbdb" data-fill-palette-color="primary"></path><path d="M11.451 108.551V108.551C9.692 107.876 8.152 106.902 6.832 105.631 5.519 104.356 4.483 102.887 3.723 101.226 2.963 99.564 2.54 97.813 2.454 95.971 2.367 94.135 2.669 92.316 3.361 90.513V90.513C4.046 88.729 5.036 87.185 6.33 85.88 7.624 84.575 9.115 83.547 10.801 82.796 12.488 82.046 14.248 81.63 16.081 81.548 17.918 81.475 19.716 81.777 21.475 82.452V82.452C23.278 83.144 24.834 84.131 26.144 85.413 27.451 86.701 28.473 88.178 29.21 89.845 29.94 91.509 30.334 93.261 30.392 95.099 30.456 96.94 30.146 98.753 29.461 100.537V100.537C28.768 102.34 27.791 103.9 26.528 105.217 25.269 106.542 23.817 107.574 22.171 108.311 20.532 109.051 18.792 109.453 16.951 109.518 15.112 109.575 13.279 109.253 11.451 108.551ZM12.935 104.688V104.688C14.248 105.192 15.565 105.421 16.888 105.374 18.211 105.327 19.461 105.047 20.638 104.533 21.816 104.02 22.861 103.297 23.774 102.364 24.679 101.436 25.378 100.328 25.873 99.04V99.04C26.36 97.771 26.576 96.495 26.521 95.213 26.462 93.922 26.164 92.697 25.629 91.54 25.095 90.377 24.351 89.341 23.395 88.433 22.436 87.532 21.3 86.829 19.988 86.325V86.325C18.669 85.818 17.349 85.585 16.029 85.626 14.706 85.673 13.452 85.944 12.267 86.441 11.079 86.943 10.027 87.656 9.11 88.58 8.184 89.507 7.479 90.602 6.994 91.865V91.865C6.49 93.178 6.273 94.482 6.345 95.778 6.413 97.066 6.717 98.3 7.258 99.481 7.802 100.655 8.56 101.693 9.534 102.593 10.507 103.493 11.641 104.191 12.935 104.688ZM75.989 44.174L75.904 44.245 46.338 41.613 47.483 41.16 60.084 56.161 56.955 58.759 38.927 37.048 39.066 36.932 68.45 39.755 67.56 40.153 54.84 24.962 57.915 22.409ZM177.075 3.356L181.041 4.113 175.911 30.98 171.946 30.223 174.158 18.633 160.536 16.033 158.324 27.622 154.368 26.867 159.497 0 163.453 0.755 161.256 12.265 174.878 14.866ZM217.165 37.654V37.654C218.405 36.236 219.85 35.126 221.499 34.324 223.148 33.531 224.883 33.064 226.705 32.923 228.527 32.782 230.317 32.989 232.076 33.544 233.829 34.094 235.433 35.004 236.887 36.276V36.276C238.325 37.533 239.434 38.995 240.213 40.659 240.992 42.324 241.443 44.077 241.567 45.919 241.69 47.761 241.474 49.556 240.919 51.305 240.354 53.055 239.452 54.639 238.212 56.058V56.058C236.941 57.511 235.478 58.632 233.823 59.42 232.164 60.204 230.425 60.654 228.606 60.771 226.792 60.883 225.012 60.649 223.266 60.07 221.516 59.496 219.921 58.58 218.483 57.322V57.322C217.029 56.051 215.902 54.596 215.1 52.957 214.29 51.318 213.822 49.599 213.696 47.8 213.567 46.006 213.789 44.234 214.363 42.484 214.942 40.738 215.876 39.128 217.165 37.654ZM220.28 40.378V40.378C219.355 41.437 218.686 42.595 218.274 43.853 217.863 45.111 217.695 46.381 217.771 47.663 217.848 48.946 218.166 50.176 218.727 51.355 219.287 52.523 220.086 53.562 221.124 54.47V54.47C222.148 55.365 223.271 56.007 224.494 56.397 225.726 56.787 226.978 56.929 228.249 56.825 229.525 56.725 230.754 56.383 231.936 55.799 233.112 55.209 234.163 54.386 235.089 53.327V53.327C236.019 52.263 236.693 51.105 237.109 49.851 237.521 48.593 237.698 47.323 237.641 46.039 237.578 44.751 237.272 43.517 236.72 42.338 236.169 41.149 235.384 40.11 234.366 39.22V39.22C233.307 38.294 232.157 37.641 230.916 37.262 229.684 36.882 228.42 36.743 227.125 36.844 225.835 36.949 224.6 37.304 223.42 37.907 222.239 38.511 221.193 39.335 220.28 40.378ZM273.909 87.864L276.616 94.89C277.349 96.792 277.655 98.542 277.535 100.139 277.406 101.731 276.883 103.116 275.966 104.291 275.042 105.469 273.726 106.387 272.019 107.045V107.045C271.008 107.434 269.95 107.665 268.846 107.737 267.75 107.813 266.668 107.671 265.599 107.311 264.533 106.958 263.546 106.325 262.639 105.412 261.736 104.491 260.982 103.246 260.378 101.676V101.676L258.941 97.946 249.833 101.455 248.385 97.697ZM262.557 96.553L263.994 100.283C264.355 101.218 264.817 101.941 265.382 102.452 265.94 102.965 266.537 103.308 267.174 103.482 267.804 103.657 268.412 103.719 268.997 103.666 269.583 103.614 270.086 103.506 270.506 103.344V103.344C270.977 103.163 271.447 102.895 271.917 102.541 272.386 102.187 272.782 101.746 273.105 101.218 273.428 100.69 273.617 100.066 273.671 99.345 273.731 98.622 273.585 97.803 273.232 96.886V96.886L271.74 93.015Z" fill="#f0dbdb" data-fill-palette-color="primary"></path><path d="M8.646 145.686C8.646 143.9 10.094 142.452 11.88 142.452 13.666 142.452 15.114 143.9 15.114 145.686 15.114 147.472 13.666 148.92 11.88 148.92 10.094 148.92 8.646 147.472 8.646 145.686ZM262.998 145.686C262.998 143.9 264.446 142.452 266.232 142.452 268.018 142.452 269.466 143.9 269.466 145.686 269.466 147.472 268.018 148.92 266.232 148.92 264.446 148.92 262.998 147.472 262.998 145.686Z" fill="#f0dbdb" data-fill-palette-color="primary"></path></g></svg></g></svg></g></svg></g><g></g></svg></g><defs></defs></svg><rect width="280" height="280" fill="none" stroke="none" visibility="hidden"></rect></g></svg></g></svg>